<svg xmlns="http://www.w3.org/2000/svg" width="993" height="574" viewBox="0 0 993 574" version="1.1"><path d="M 45.678 103.655 C 45.305 104.028, 45 194.508, 45 304.721 L 45 505.110 141.250 504.718 C 242.717 504.304, 242.024 504.333, 264.600 499.584 C 306.692 490.730, 340.482 472.352, 369.367 442.603 C 377.694 434.027, 391 417.516, 391 415.760 C 391 415.186, 387.335 407.693, 382.856 399.108 C 378.377 390.524, 367.971 370.225, 359.731 354 C 351.491 337.775, 344.387 324.361, 343.945 324.190 C 343.502 324.020, 342.854 326.045, 342.503 328.690 C 339.781 349.240, 333.185 367.393, 322.787 382.952 C 302.420 413.425, 273.042 430.732, 231.949 436.463 C 217.301 438.506, 124.848 438.750, 123.240 436.750 C 122.492 435.821, 122.305 236.059, 122.991 171.681 C 122.996 171.231, 147.412 171.044, 177.250 171.265 C 228.502 171.646, 232.036 171.789, 241.199 173.844 C 259.284 177.902, 273.984 183.894, 286.359 192.253 C 308.385 207.131, 315.727 215.994, 336.270 252.500 C 343.899 266.058, 377.782 333.818, 383.523 347 C 385.081 350.575, 399.625 379.825, 415.844 412 C 432.064 444.175, 445.821 471.509, 446.417 472.742 L 447.500 474.984 476.275 474.992 L 505.050 475 506.039 472.398 C 507.685 468.068, 524.874 434.003, 562.501 360.500 C 568.132 349.500, 582.533 321.150, 594.502 297.500 C 619.187 248.727, 618.909 249.234, 620.008 251.013 C 620.442 251.716, 620.549 309.150, 620.245 378.645 L 619.693 505 659.972 505 L 700.250 505 699.604 489.750 C 699.249 481.363, 698.751 471.350, 698.497 467.500 C 698.244 463.650, 697.793 454.650, 697.494 447.500 C 696.897 433.194, 696.481 425.107, 694.998 399 C 694.451 389.375, 693.544 372.950, 692.981 362.500 C 692.419 352.050, 691.286 331.350, 690.463 316.500 C 689.640 301.650, 688.529 280.725, 687.994 270 C 687.459 259.275, 686.576 243.750, 686.030 235.500 C 685.485 227.250, 684.737 213.412, 684.368 204.750 L 683.698 189 677.599 188.851 C 674.244 188.769, 667.909 188.656, 663.520 188.601 C 654.217 188.483, 653.388 187.515, 657.294 181.324 C 660.121 176.840, 667.633 163.946, 680.783 141 C 685.983 131.925, 691.012 123.375, 691.957 122 C 694.251 118.662, 702 104.436, 702 103.563 C 702 103.183, 680.288 103.050, 653.750 103.268 L 605.500 103.665 600.942 112.582 C 598.435 117.487, 589.038 135.900, 580.060 153.500 C 560.021 192.783, 547.022 218.128, 537.491 236.500 C 529.692 251.534, 514.136 281.941, 491.702 326 C 484.001 341.125, 477.531 353.698, 477.326 353.940 C 476.196 355.272, 475.632 354.245, 448.489 301.500 C 443.111 291.050, 436.580 278.442, 433.974 273.481 C 431.369 268.521, 422.371 250.971, 413.979 234.481 C 396.099 199.349, 393.939 195.572, 384.570 183.051 C 357.721 147.168, 317.412 121.414, 270.500 110.170 C 262.457 108.242, 255.298 106.993, 240.500 104.935 C 231.628 103.701, 46.846 102.487, 45.678 103.655 M 369.990 104.488 C 370.611 105.237, 373.680 107.778, 376.810 110.136 C 402.363 129.388, 423.066 152.580, 440.514 181.500 C 448.715 195.095, 466.368 230.576, 471.995 244.776 C 473.798 249.327, 475.621 253.266, 476.045 253.528 C 476.469 253.790, 479.838 248.041, 483.532 240.752 C 489.861 228.265, 499.573 209.189, 530.248 149 C 537.396 134.975, 545.439 119.410, 548.122 114.410 C 550.805 109.411, 553 104.842, 553 104.258 C 553 103.516, 525.233 103.185, 460.930 103.161 C 383.380 103.132, 369.039 103.342, 369.990 104.488 M 704.005 104.238 C 704.010 105.411, 713.944 120.866, 745.400 168.634 C 752.330 179.158, 758 188.046, 758 188.384 C 758 188.723, 751.325 189, 743.167 189 L 728.333 189 727.159 204.250 C 726.513 212.637, 724.648 237.950, 723.015 260.500 C 721.383 283.050, 719.576 307.800, 719.001 315.500 C 716.001 355.640, 713.840 385.391, 712.027 411.500 C 709.038 454.534, 707.931 469.774, 706.509 487.500 C 705.803 496.300, 705.426 503.837, 705.672 504.250 C 705.917 504.662, 761.897 505, 830.072 505 L 954.026 505 953.763 470.398 L 953.500 435.796 866.753 435.946 L 780.006 436.096 779.753 269.798 L 779.500 103.500 741.750 103.238 C 711.884 103.031, 704.001 103.240, 704.005 104.238" stroke="none" fill="#e25d25" fill-rule="evenodd"/></svg>