<svg xmlns="http://www.w3.org/2000/svg" width="1478" height="574" viewBox="0 0 1478 574" version="1.1"><path d="M 825 152.500 L 825 202 835.973 202 L 846.945 202 847.223 187.750 L 847.500 173.500 864 172.926 C 873.075 172.611, 881.978 171.850, 883.785 171.236 C 892.083 168.416, 898.573 162.327, 902.691 153.500 C 905.180 148.163, 905.486 146.395, 905.456 137.500 C 905.410 123.514, 901.410 115.038, 892.005 109.004 C 884.357 104.096, 876.797 103.037, 849.250 103.017 L 825 103 825 152.500 M 922 112 L 922 121 937 121 L 952 121 952 161.500 L 952 202 963 202 L 974 202 974 161.500 L 974 121 989 121 L 1004 121 1004 112 L 1004 103 963 103 L 922 103 922 112 M 1070 152.500 L 1070 202 1094.250 201.985 C 1121.679 201.969, 1127.102 201.157, 1137.968 195.447 C 1153.585 187.241, 1163 170.810, 1163 151.763 C 1163 128.382, 1146.391 108.316, 1123.542 104.092 C 1120.292 103.492, 1106.915 103, 1093.816 103 L 1070 103 1070 152.500 M 1188 152.500 L 1188 202 1199.147 202 L 1210.293 202 1209.647 194.349 C 1209.291 190.141, 1209 167.866, 1209 144.849 L 1209 103 1198.500 103 L 1188 103 1188 152.500 M 1234.289 104.750 C 1234.576 105.713, 1243.151 127.875, 1253.345 154 L 1271.879 201.500 1283.291 201.780 L 1294.704 202.061 1301.496 184.780 C 1319.298 139.487, 1333.150 104.567, 1333.610 103.822 C 1333.889 103.370, 1328.902 103, 1322.528 103 C 1314.146 103, 1310.821 103.346, 1310.516 104.250 C 1310.285 104.938, 1306.204 116.525, 1301.447 130 C 1296.691 143.475, 1291.261 159, 1289.381 164.500 C 1285.834 174.874, 1284.470 177.804, 1283.595 176.928 C 1283.222 176.556, 1261.629 116.445, 1257.487 104.250 C 1257.180 103.346, 1253.840 103, 1245.415 103 C 1234.789 103, 1233.813 103.154, 1234.289 104.750 M 1369.315 104.718 C 1368.519 106.913, 1340.147 173.122, 1333.116 189.194 C 1330.302 195.625, 1328 201.137, 1328 201.444 C 1328 201.750, 1333.063 202, 1339.250 201.999 L 1350.500 201.999 1353.938 192.534 L 1357.375 183.069 1380.664 182.784 L 1403.953 182.500 1407.645 192.250 L 1411.336 202 1423.227 202 C 1429.767 202, 1434.932 201.662, 1434.705 201.250 C 1434.222 200.375, 1424.236 176.871, 1406.131 134 L 1393.250 103.500 1381.606 103.218 C 1371.195 102.966, 1369.893 103.125, 1369.315 104.718 M 847 138.096 L 847 155.192 860.750 154.823 C 876.218 154.409, 879.358 153.393, 882.903 147.656 C 885.706 143.121, 885.753 134.397, 883.005 129.009 C 879.819 122.764, 874.614 121, 859.373 121 L 847 121 847 138.096 M 1091.810 121.517 C 1090.913 122.422, 1090.750 169.104, 1091.614 177.534 L 1092.276 184 1103.533 184 C 1122.984 184, 1132.327 179.284, 1138.202 166.500 C 1141.381 159.583, 1141.433 145.639, 1138.305 139 C 1135.381 132.794, 1129.634 127.188, 1123.047 124.118 C 1118.209 121.862, 1115.903 121.486, 1105 121.176 C 1098.125 120.980, 1092.189 121.133, 1091.810 121.517 M 1375.106 140.259 C 1372.139 147.542, 1368.685 156.088, 1367.430 159.250 L 1365.149 165 1380.691 165 L 1396.233 165 1395.702 162.750 C 1394.853 159.148, 1381.685 126.999, 1381.064 127.009 C 1380.754 127.015, 1378.073 132.977, 1375.106 140.259 M 825 266.500 L 825 309 833.484 309 L 841.969 309 842.234 280.750 L 842.500 252.500 854.490 276.250 L 866.480 300 872.743 300 L 879.006 300 890.743 276.500 C 897.198 263.575, 902.866 253, 903.338 253 C 903.809 253, 904.048 265.488, 903.869 280.750 L 903.542 308.500 911.775 308.500 L 920.007 308.500 920.253 266.250 L 920.500 223.999 909.985 224 L 899.469 224 886.500 250 C 879.367 264.300, 873.208 276, 872.813 276 C 872.418 276, 866.336 264.321, 859.298 250.048 L 846.500 224.095 835.750 224.048 L 825 224 825 266.500 M 942.012 251.250 C 942.027 285.471, 942.961 289.829, 952.170 298.645 C 960.142 306.278, 971.222 309.797, 983.803 308.694 C 997.160 307.522, 1006.082 302.686, 1012.361 293.213 C 1016.646 286.748, 1016.760 285.793, 1017.423 250.750 L 1017.928 224 1008.521 224 L 999.114 224 998.807 252.250 C 998.520 278.621, 998.364 280.733, 996.449 284 C 989.604 295.681, 968.991 294.876, 963.096 282.698 C 961.126 278.628, 961 276.740, 961 251.184 L 961 224 951.500 224 L 942 224 942.012 251.250 M 1036 232 L 1036 240 1049 240 L 1062 240 1062 274.500 L 1062 309 1071.500 309 L 1081 309 1081 274.500 L 1081 240 1094 240 L 1107 240 1107 232 L 1107 224 1071.500 224 L 1036 224 1036 232 M 1124 266.500 L 1124 309 1133.500 309 L 1143 309 1143 266.500 L 1143 224 1133.500 224 L 1124 224 1124 266.500 M 1190.475 231.625 C 1188.564 235.819, 1187 239.405, 1187 239.595 C 1187 239.786, 1180.861 254.017, 1173.358 271.221 C 1165.855 288.424, 1159.099 303.962, 1158.345 305.750 L 1156.973 309 1166.759 309 L 1176.545 309 1179.615 300.750 L 1182.685 292.500 1202.693 292.230 L 1222.702 291.960 1226.122 300.230 L 1229.542 308.500 1239.647 308.784 L 1249.753 309.067 1233.279 270.784 C 1224.217 249.728, 1216.131 230.588, 1215.308 228.250 L 1213.812 224 1203.881 224 L 1193.950 224 1190.475 231.625 M 1266 266.500 L 1266 309 1274.969 309 L 1283.938 309 1284.219 296.750 L 1284.500 284.500 1294.498 284.500 L 1304.495 284.500 1311.161 296.500 L 1317.828 308.500 1328.552 308.785 L 1339.276 309.070 1337.794 306.785 C 1326.168 288.858, 1322 282.144, 1322 281.345 C 1322 280.817, 1323.912 279.034, 1326.250 277.382 C 1328.765 275.605, 1331.725 272.158, 1333.500 268.939 C 1336.271 263.916, 1336.500 262.736, 1336.500 253.500 C 1336.500 244.393, 1336.255 243.083, 1333.751 238.824 C 1330.027 232.488, 1325.059 228.629, 1317.384 226.110 C 1311.618 224.217, 1308.650 224, 1288.479 224 L 1266 224 1266 266.500 M 1383.490 233.217 C 1381.387 238.323, 1376.412 249.925, 1372.433 259 C 1358.225 291.407, 1351 308.126, 1351 308.596 C 1351 308.858, 1355.298 308.944, 1360.551 308.786 L 1370.102 308.500 1373.301 300.500 L 1376.500 292.500 1396.599 292.230 L 1416.698 291.960 1419.992 300.480 L 1423.286 309 1433.260 309 C 1442.299 309, 1443.182 308.836, 1442.688 307.250 C 1442.389 306.288, 1434.287 287.275, 1424.685 265 L 1407.227 224.500 1397.269 224.217 L 1387.312 223.933 1383.490 233.217 M 1285.250 239.662 C 1284.331 240.033, 1284 243.986, 1284 254.583 L 1284 269 1296.040 269 C 1306.126 269, 1308.719 268.674, 1312.019 266.990 C 1316.835 264.534, 1319.346 260.040, 1319.368 253.843 C 1319.392 247.072, 1315.967 242.402, 1309.568 240.481 C 1304.899 239.079, 1288.098 238.513, 1285.250 239.662 M 1396.598 244.842 C 1395.113 247.245, 1384 274.505, 1384 275.745 C 1384 276.687, 1387.241 277, 1397 277 C 1404.150 277, 1410 276.770, 1410 276.488 C 1410 276.207, 1407.352 269.344, 1404.116 261.238 C 1400.880 253.132, 1398.037 245.847, 1397.799 245.049 C 1397.468 243.939, 1397.186 243.890, 1396.598 244.842 M 1196.126 260.265 C 1192.757 268.661, 1190 275.861, 1190 276.265 C 1190 276.669, 1195.850 277, 1203 277 C 1212.158 277, 1216 276.659, 1216 275.846 C 1216 273.993, 1203.746 245, 1202.963 245 C 1202.572 245, 1199.496 251.869, 1196.126 260.265 M 1034.638 331.210 C 1022.414 332.766, 1010.541 341.120, 1005.271 351.874 C 1002.794 356.925, 1002.512 358.572, 1002.506 368 C 1002.501 377.288, 1002.807 379.155, 1005.160 384.175 C 1009.062 392.498, 1014.728 398.110, 1023.234 402.080 C 1030.144 405.304, 1031.039 405.468, 1041.500 405.419 C 1050.908 405.374, 1053.465 404.989, 1059.172 402.758 C 1062.842 401.323, 1067.004 399.388, 1068.422 398.459 L 1071 396.770 1071 381.885 L 1071 367 1063.533 367 L 1056.066 367 1055.783 378.141 L 1055.500 389.283 1051 390.626 C 1036.838 394.854, 1023.172 388.279, 1019.440 375.443 C 1015.700 362.576, 1022.547 349.124, 1034.500 345.857 C 1043.113 343.503, 1055.109 345.812, 1059.072 350.586 C 1060.876 352.760, 1062.100 352.289, 1067.461 347.357 L 1072.422 342.793 1068.961 339.899 C 1060.412 332.751, 1047.736 329.542, 1034.638 331.210 M 1176.567 331.169 C 1167.410 332.095, 1159.610 336.056, 1155.539 341.849 C 1152.882 345.628, 1152.503 347.011, 1152.520 352.836 C 1152.558 365.151, 1158.680 370.379, 1178.470 374.993 C 1192.115 378.175, 1196.474 381.672, 1193.882 387.359 C 1192.117 391.234, 1185.485 393.428, 1177.729 392.704 C 1171.180 392.092, 1160.702 388.675, 1157.775 386.197 C 1156.218 384.877, 1155.949 385.015, 1154.999 387.618 C 1154.420 389.203, 1153.171 391.997, 1152.223 393.826 C 1150.538 397.078, 1150.550 397.192, 1152.767 399 C 1154.014 400.017, 1158.064 401.885, 1161.767 403.153 C 1171.490 406.481, 1189.108 406.428, 1196.788 403.048 C 1209.960 397.251, 1214.760 383.791, 1207.544 372.888 C 1204.491 368.273, 1199.408 365.825, 1185.247 362.148 C 1173.084 358.990, 1169.530 357.244, 1168.471 353.907 C 1165.817 345.545, 1180.944 341.047, 1194.775 346.086 C 1197.924 347.233, 1201.114 348.245, 1201.865 348.336 C 1203.475 348.529, 1207.506 338.761, 1206.692 336.639 C 1205.362 333.173, 1187.978 330.016, 1176.567 331.169 M 928.383 331.896 C 919.402 334.193, 909.710 341.226, 905.406 348.570 C 893.935 368.144, 901.411 392.335, 922 402.264 C 928.044 405.178, 929.272 405.402, 939.500 405.447 C 949.804 405.492, 950.919 405.296, 957.123 402.359 C 965.703 398.297, 970.926 393.492, 974.933 385.974 C 982.994 370.850, 980.126 352.939, 967.796 341.406 C 960.035 334.147, 953.437 331.620, 941.500 331.336 C 936 331.206, 930.097 331.457, 928.383 331.896 M 825 368.500 L 825 405 851.500 405 L 878 405 878 397.952 L 878 390.903 860.384 391.073 C 848.898 391.183, 842.540 390.874, 842.114 390.184 C 841.754 389.603, 841.469 376.273, 841.480 360.563 L 841.500 332 833.250 332 L 825 332 825 368.500 M 1104.500 368.500 L 1104.500 405 1112.750 405 L 1121 405 1121 368.500 L 1121 332 1112.750 332 L 1104.500 332 1104.500 368.500 M 1231 338.500 L 1231 345 1243 345 L 1255 345 1255 375 L 1255 405 1263 405 L 1271 405 1271 375 L 1271 345 1283 345 L 1295 345 1295 338.500 L 1295 332 1263 332 L 1231 332 1231 338.500 M 1322 368.500 L 1322 405 1330 405 L 1338 405 1338 368.500 L 1338 332 1330 332 L 1322 332 1322 368.500 M 1374 368.500 L 1374 405 1382 405 L 1390 405 1390 395.712 L 1390 386.424 1394.999 381.100 L 1399.997 375.775 1401.976 378.138 C 1403.065 379.437, 1408.353 385.999, 1413.728 392.720 L 1423.500 404.939 1433.316 404.970 L 1443.133 405 1438.545 399.250 C 1436.022 396.087, 1428.817 387.014, 1422.535 379.086 L 1411.113 364.672 1413.142 362.086 C 1414.257 360.664, 1421.021 353.313, 1428.172 345.750 L 1441.173 332 1431.837 332.008 L 1422.500 332.017 1406.500 349.078 L 1390.500 366.139 1390.226 349.070 L 1389.953 332 1381.976 332 L 1374 332 1374 368.500 M 933.713 345.391 C 919.671 349.259, 912.955 364.726, 919.107 379.028 C 924.794 392.247, 942.991 396.226, 954.473 386.762 C 967.126 376.332, 964.963 353.944, 950.677 347.480 C 943.741 344.341, 939.444 343.812, 933.713 345.391" stroke="none" fill="#302725" fill-rule="evenodd"/><path d="M 46.750 103.534 C 46.337 103.973, 46 194.506, 46 304.718 L 46 505.102 141.750 504.705 C 240.518 504.297, 243.263 504.193, 263.758 500.099 C 305.199 491.821, 344.816 470.401, 371.559 441.812 C 378.959 433.902, 392.010 417.158, 391.972 415.623 C 391.957 415.006, 386.784 404.600, 380.476 392.500 C 374.169 380.400, 363.719 359.831, 357.254 346.790 C 350.789 333.750, 345.195 323.063, 344.822 323.040 C 344.449 323.018, 343.848 325.587, 343.487 328.750 C 338.256 374.505, 308.104 413.315, 266 428.487 C 243.039 436.761, 238.751 437.214, 179 437.663 C 150.125 437.880, 125.931 437.677, 125.236 437.211 C 124.118 436.462, 123.701 347.136, 123.998 172.250 C 124.001 170.658, 215.796 170.479, 229.500 172.044 C 251.638 174.573, 271.833 181.763, 288.647 193.102 C 308.868 206.739, 317.553 217.294, 336.697 251.500 C 344.794 265.968, 378.710 333.686, 384.527 347 C 386.089 350.575, 400.632 379.825, 416.844 412 C 433.057 444.175, 446.812 471.509, 447.411 472.742 L 448.500 474.984 477.275 474.992 L 506.050 475 507.078 472.250 C 508.145 469.397, 512.180 461.338, 531.986 422.500 C 556.380 374.666, 566.333 354.636, 566.333 353.383 C 566.333 352.671, 566.596 352.251, 566.918 352.449 C 567.391 352.742, 612.529 264.945, 617.924 253.238 C 618.751 251.444, 619.894 250.132, 620.464 250.322 C 621.174 250.559, 621.394 290.695, 621.163 377.834 L 620.826 505 660.913 505 L 701 505 700.978 501.750 C 700.941 496.223, 697.613 426.687, 695.988 397.500 C 694.714 374.591, 693.196 346.346, 692.039 324 C 691.541 314.375, 690.437 294.350, 689.586 279.500 C 687.513 243.317, 686.107 218.309, 685.228 202 C 684.523 188.934, 684.428 188.496, 682.250 188.375 C 681.013 188.306, 674.600 188.194, 668 188.125 C 658.450 188.026, 656 187.715, 656 186.602 C 656 185.833, 657.885 182.121, 660.189 178.352 C 662.493 174.583, 666.027 168.575, 668.043 165 C 670.059 161.425, 676.557 150.175, 682.484 140 C 688.412 129.825, 695.416 117.707, 698.049 113.071 C 700.683 108.434, 703.551 104.536, 704.423 104.408 C 705.296 104.280, 705.803 104.509, 705.551 104.918 C 705.121 105.613, 716.513 123.354, 746.404 168.542 C 753.332 179.015, 759 187.902, 759 188.292 C 759 188.681, 752.250 189, 744 189 C 732.048 189, 729 189.275, 729 190.355 C 729 191.100, 728.560 197.287, 728.021 204.105 C 727.483 210.922, 726.592 223.025, 726.040 231 C 725.489 238.975, 724.561 252.025, 723.978 260 C 723.395 267.975, 722.502 280.350, 721.994 287.500 C 719.073 328.598, 716.913 358.022, 715.989 369.288 C 715.412 376.321, 714.529 388.246, 714.027 395.788 C 710.019 455.960, 707.306 493.186, 706.413 500.250 L 705.812 505 830.419 505 L 955.026 505 954.763 470.390 L 954.500 435.779 868 435.640 L 781.500 435.500 781 269.500 L 780.500 103.500 693.500 103.500 L 606.500 103.500 602.350 111.671 C 600.067 116.165, 592.586 130.790, 585.725 144.171 C 578.864 157.552, 567.961 178.850, 561.495 191.500 C 537.600 238.248, 522.874 266.974, 513.562 285 C 508.306 295.175, 498.267 314.861, 491.253 328.747 C 484.239 342.634, 478.050 353.995, 477.500 353.996 C 476.950 353.997, 473.464 348.035, 469.753 340.749 C 466.043 333.462, 458.357 318.500, 452.674 307.500 C 431.555 266.619, 423.573 251.194, 417.486 239.500 C 414.051 232.900, 408.194 221.425, 404.470 214 C 398.863 202.819, 387.433 183.939, 385.098 182 C 384.766 181.725, 381.946 178.350, 378.831 174.500 C 366.786 159.616, 346.202 142.260, 330 133.327 C 326.975 131.659, 322.925 129.414, 321 128.337 C 309.959 122.161, 286.990 113.720, 271.500 110.146 C 262.815 108.142, 258.067 107.309, 242 104.971 C 233.078 103.672, 47.898 102.309, 46.750 103.534 M 370 103.952 C 370 104.312, 372.805 106.584, 376.233 109.002 C 400.038 125.789, 423.759 152.007, 440.922 180.500 C 448.513 193.103, 467.039 230.027, 471.930 242.302 C 473.507 246.261, 475.374 250.756, 476.078 252.291 L 477.359 255.083 480.986 247.791 C 484.240 241.250, 496.470 217.253, 527.514 156.500 C 533.135 145.500, 541.394 129.461, 545.867 120.858 C 550.340 112.255, 554 104.694, 554 104.056 C 554 103.183, 531.242 102.946, 462 103.097 C 411.400 103.207, 370 103.592, 370 103.952 M 1209.460 147.500 C 1209.460 172.250, 1209.590 182.232, 1209.749 169.682 C 1209.908 157.132, 1209.908 136.882, 1209.749 124.682 C 1209.590 112.482, 1209.460 122.750, 1209.460 147.500 M 1091.434 151.500 C 1091.433 165.250, 1091.574 171.014, 1091.747 164.308 C 1091.919 157.603, 1091.920 146.353, 1091.748 139.308 C 1091.576 132.264, 1091.434 137.750, 1091.434 151.500 M 854.250 173.742 C 857.962 173.934, 864.038 173.934, 867.750 173.742 C 871.462 173.549, 868.425 173.392, 861 173.392 C 853.575 173.392, 850.538 173.549, 854.250 173.742 M 1187.160 192.691 C 1187.072 197.746, 1187.338 202.092, 1187.750 202.349 C 1188.162 202.605, 1188.376 199.819, 1188.224 196.158 C 1187.743 184.558, 1187.325 183.197, 1187.160 192.691 M 920.456 267 C 920.456 289.275, 920.588 298.387, 920.749 287.250 C 920.910 276.113, 920.910 257.888, 920.749 246.750 C 920.588 235.613, 920.456 244.725, 920.456 267 M 1017.417 258.500 C 1017.418 268.950, 1017.566 273.089, 1017.746 267.698 C 1017.926 262.307, 1017.925 253.757, 1017.744 248.698 C 1017.563 243.639, 1017.416 248.050, 1017.417 258.500 M 1284.389 256.500 C 1284.390 263.650, 1284.550 266.444, 1284.742 262.708 C 1284.935 258.973, 1284.934 253.123, 1284.739 249.708 C 1284.545 246.294, 1284.387 249.350, 1284.389 256.500 M 902.758 268.749 C 903.247 298.622, 903.589 301.427, 903.794 277.250 C 903.907 263.913, 903.663 252.999, 903.250 252.999 C 902.837 252.998, 902.616 260.085, 902.758 268.749 M 1284.434 285.311 C 1284.157 286.032, 1284.075 291.770, 1284.252 298.061 L 1284.572 309.500 1284.786 297.310 L 1285 285.121 1288.750 284.728 L 1292.500 284.336 1288.719 284.168 C 1286.390 284.065, 1284.744 284.504, 1284.434 285.311 M 1373.453 368.500 C 1373.453 388.850, 1373.586 397.033, 1373.749 386.685 C 1373.912 376.336, 1373.911 359.686, 1373.748 349.685 C 1373.585 339.683, 1373.452 348.150, 1373.453 368.500 M 1104.450 368.500 C 1104.451 387.750, 1104.585 395.483, 1104.749 385.685 C 1104.913 375.888, 1104.912 360.138, 1104.748 350.685 C 1104.584 341.233, 1104.450 349.250, 1104.450 368.500 M 841.370 350 C 841.370 355.775, 841.535 358.137, 841.737 355.250 C 841.939 352.363, 841.939 347.637, 841.737 344.750 C 841.535 341.863, 841.370 344.225, 841.370 350 M 1254.444 375 C 1254.444 391.775, 1254.581 398.637, 1254.748 390.250 C 1254.915 381.863, 1254.915 368.137, 1254.748 359.750 C 1254.581 351.363, 1254.444 358.225, 1254.444 375 M 1054.995 378.204 C 1054.723 384.641, 1054.853 389.553, 1055.286 389.118 C 1055.718 388.684, 1055.940 383.417, 1055.780 377.414 L 1055.490 366.500 1054.995 378.204 M 1352 432.355 L 1352 447.710 1334.750 448.323 C 1325.263 448.660, 1309.850 449.394, 1300.500 449.955 C 1291.150 450.516, 1267.075 451.880, 1247 452.986 C 1226.925 454.092, 1199.025 455.656, 1185 456.462 C 1170.975 457.268, 1148.925 458.409, 1136 458.997 C 1123.075 459.586, 1105.975 460.508, 1098 461.047 C 1090.025 461.585, 1067.300 462.695, 1047.500 463.514 C 1027.700 464.332, 1009.925 465.280, 1008 465.620 C 1005.011 466.149, 1004.792 466.357, 1006.500 467.049 C 1007.600 467.495, 1010.504 467.891, 1012.954 467.930 C 1015.404 467.968, 1022.154 468.442, 1027.954 468.983 C 1033.754 469.523, 1046.600 470.450, 1056.500 471.042 C 1066.400 471.634, 1079.225 472.540, 1085 473.055 C 1090.775 473.570, 1106.300 474.686, 1119.500 475.535 C 1151.059 477.564, 1168.546 478.744, 1185 479.957 C 1215.071 482.174, 1226.541 482.980, 1249 484.452 C 1261.925 485.299, 1274.300 486.224, 1276.500 486.507 C 1278.700 486.791, 1287.925 487.465, 1297 488.005 C 1314.358 489.040, 1333.891 490.479, 1345.295 491.565 L 1352.090 492.212 1351.945 506.672 C 1351.865 514.626, 1352.014 521.347, 1352.276 521.609 C 1352.537 521.871, 1361.245 516.522, 1371.626 509.723 C 1401.888 489.903, 1430.199 471.536, 1434.250 469.096 C 1436.313 467.853, 1437.985 466.536, 1437.967 466.168 C 1437.949 465.801, 1430.677 461.450, 1421.808 456.500 C 1412.939 451.550, 1399.567 443.968, 1392.091 439.651 C 1384.616 435.334, 1375.575 430.114, 1372 428.052 C 1368.425 425.990, 1362.655 422.660, 1359.178 420.651 C 1355.701 418.643, 1352.664 417, 1352.428 417 C 1352.193 417, 1352 423.910, 1352 432.355 M 1218 434.500 C 1218 437.525, 1217.662 440.001, 1217.250 440.001 C 1216.168 440.003, 1169.799 445.803, 1161.500 446.974 C 1157.650 447.517, 1146.009 448.923, 1135.632 450.099 C 1115.634 452.364, 1108.119 453.778, 1115.500 453.887 C 1117.700 453.920, 1132.100 453.276, 1147.500 452.457 C 1172.851 451.109, 1195.359 450.005, 1235.436 448.146 L 1249.372 447.500 1245.386 444.868 C 1243.194 443.421, 1239.173 441.054, 1236.450 439.609 C 1233.728 438.164, 1228.642 435.186, 1225.150 432.991 C 1221.657 430.796, 1218.619 429, 1218.400 429 C 1218.180 429, 1218 431.475, 1218 434.500 M 1086.500 480.766 C 1087.405 481.705, 1102.953 484.429, 1139.500 490.049 C 1146.650 491.149, 1155.088 492.488, 1158.250 493.024 C 1161.412 493.561, 1166.588 494.416, 1169.750 494.925 C 1172.912 495.433, 1178.425 496.332, 1182 496.922 C 1185.575 497.511, 1194.350 498.915, 1201.500 500.042 C 1222.849 503.406, 1237.460 505.749, 1257.095 508.960 C 1267.323 510.632, 1276.548 512.007, 1277.595 512.015 C 1281.856 512.050, 1282.188 513.098, 1280.856 522.312 C 1280.169 527.058, 1279.901 531.234, 1280.259 531.592 C 1280.617 531.950, 1284.418 530.226, 1288.705 527.762 C 1292.992 525.297, 1305.388 518.435, 1316.250 512.513 C 1327.112 506.591, 1336 501.353, 1336 500.873 C 1336 500.393, 1333.638 500.001, 1330.750 500.001 C 1327.862 500.002, 1320.775 499.564, 1315 499.027 C 1309.225 498.490, 1297.975 497.572, 1290 496.986 C 1282.025 496.400, 1258.850 494.589, 1238.500 492.960 C 1218.150 491.331, 1195.650 489.544, 1188.500 488.988 C 1176.825 488.082, 1165.596 487.158, 1146 485.494 C 1142.425 485.190, 1135 484.496, 1129.500 483.952 C 1124 483.407, 1112.975 482.523, 1105 481.987 C 1097.025 481.451, 1089.375 480.723, 1088 480.370 C 1086.285 479.929, 1085.814 480.054, 1086.500 480.766" stroke="none" fill="#e55c24" fill-rule="evenodd"/></svg>